<svg width="141" height="23" viewBox="0 0 141 23" fill="none" xmlns="http://www.w3.org/2000/svg">
<path d="M71.0366 0.0171388C68.3958 0.0171388 65.5921 1.98062 64.8633 3.37819C64.0316 1.97204 62.1453 0.92599 61.1164 0.92599C60.6534 0.92599 60.2676 1.30326 60.2676 1.76626V21.2552C60.2676 21.7182 60.6448 22.0954 61.1164 22.0954H64.9833C65.4463 22.0954 65.8322 21.7182 65.8322 21.2552V10.3489C65.8322 7.70811 67.9843 5.55599 70.6251 5.55599C73.2659 5.55599 75.418 7.70811 75.418 10.3489V21.2552C75.418 21.7182 75.7953 22.0954 76.2583 22.0954H80.1252C80.5882 22.0954 80.974 21.7182 80.974 21.2552V9.55152C80.974 3.84118 76.747 0 71.0452 0L71.0366 0.0171388Z" fill="white"/>
<path d="M10.7691 0.0171388C8.12824 0.0171388 5.32451 1.98062 4.59571 3.37819C3.76402 1.97204 1.87773 0.92599 0.848835 0.92599C0.385834 0.92599 0 1.30326 0 1.76626V21.2552C0 21.7182 0.37726 22.0954 0.848835 22.0954H4.71575C5.17875 22.0954 5.56458 21.7182 5.56458 21.2552V10.3489C5.56458 7.70811 7.71668 5.55599 10.3575 5.55599C12.9983 5.55599 15.1504 7.70811 15.1504 10.3489V21.2552C15.1504 21.7182 15.5277 22.0954 15.9907 22.0954H19.8576C20.3206 22.0954 20.7064 21.7182 20.7064 21.2552V9.55152C20.7064 3.84118 16.4794 0 10.7776 0L10.7691 0.0171388Z" fill="white"/>
<path d="M100.265 5.06675C102.614 5.06675 104.638 6.3357 105.692 8.4535C105.795 8.65928 105.967 8.80504 106.181 8.88221C106.395 8.9508 106.627 8.94224 106.824 8.83935L110.074 7.21883C110.28 7.11594 110.434 6.9359 110.502 6.72155C110.571 6.50719 110.554 6.26711 110.442 6.06991C108.479 2.34018 104.578 0.0166016 100.265 0.0166016C93.9544 0.0166016 88.8271 4.97244 88.8271 11.0686C88.8271 16.5046 93.1999 22.3693 100.265 22.3693C104.612 22.3693 108.41 20.0628 110.417 16.1959C110.52 15.9987 110.537 15.7586 110.468 15.5443C110.4 15.3299 110.245 15.1499 110.039 15.047L106.841 13.4522C106.644 13.3493 106.404 13.3322 106.19 13.4093C105.975 13.4779 105.795 13.6408 105.701 13.8466C104.672 15.9901 102.589 17.3191 100.256 17.3191C96.5095 17.3191 94.1945 14.1381 94.1945 11.1801C94.1945 8.24774 96.5095 5.08389 100.256 5.08389L100.265 5.06675Z" fill="white"/>
<path d="M129.562 0.0166016C123.251 0.0166016 118.124 4.97244 118.124 11.0686C118.124 16.5046 122.497 22.3693 129.562 22.3693C136.627 22.3693 141 16.5389 141 11.1458C141 5.01531 135.872 0.025184 129.562 0.025184V0.0166016ZM135.624 11.1372C135.624 14.5411 132.906 17.3106 129.562 17.3106C125.815 17.3106 123.5 14.1296 123.5 11.1715C123.5 8.23916 125.815 5.07531 129.562 5.07531C133.309 5.07531 135.624 8.22201 135.624 11.1372V11.1372Z" fill="white"/>
<path d="M51.3171 11.1294C51.3171 4.99888 46.1898 0.00878906 39.8792 0.00878906C33.5687 0.00878906 28.4414 4.9646 28.4414 11.0608C28.4414 16.4967 32.8142 22.3614 39.8792 22.3614C42.7773 22.3614 44.8265 21.3754 46.3355 19.8492C46.3613 19.9092 46.387 19.9693 46.4213 20.0378C47.1758 21.5469 48.7534 22.55 50.4768 22.55C50.9398 22.55 51.3256 22.1728 51.3256 21.7098V11.1808C51.3256 11.1808 51.3256 11.1551 51.3256 11.1379L51.3171 11.1294ZM39.8792 17.3027C36.1324 17.3027 33.8174 14.1217 33.8174 11.1637C33.8174 8.2056 36.1324 5.0675 39.8792 5.0675C43.6261 5.0675 45.9411 8.21417 45.9411 11.1294C45.9411 14.5333 43.2231 17.3027 39.8792 17.3027V17.3027Z" fill="white"/>
</svg>
